<?xml version="1.0" encoding="UTF-8"?>
<svg version="1.1" xmlns="http://www.w3.org/2000/svg" width="500" height="500">
<path d="M0 0 C0.74329559 0.00465271 1.48659119 0.00930542 2.25241089 0.01409912 C37.22844781 0.2705265 66.04918532 13.03772086 91.0625 37.375 C97.0625 43.6756012 97.0625 43.6756012 97.0625 46.375 C97.7225 46.375 98.3825 46.375 99.0625 46.375 C111.07803979 61.5704558 118.95070756 79.53460294 123.0625 98.375 C123.30742187 99.49519531 123.55234375 100.61539063 123.8046875 101.76953125 C128.8275453 130.2209244 123.5580409 159.06817659 110.421875 184.55859375 C108.62880793 188.27354017 108.35794534 190.28858295 109.0625 194.375 C111.55890312 197.98313464 114.58856242 201.00420478 117.79296875 203.984375 C119.0625 205.375 119.0625 205.375 119.0625 207.375 C119.7225 207.375 120.3825 207.375 121.0625 207.375 C121.0625 208.035 121.0625 208.695 121.0625 209.375 C121.64515625 209.6328125 122.2278125 209.890625 122.828125 210.15625 C125.2427903 211.47334017 126.87990177 212.92588384 128.8125 214.875 C129.42609375 215.4834375 130.0396875 216.091875 130.671875 216.71875 C132.0625 218.375 132.0625 218.375 132.0625 220.375 C132.7225 220.375 133.3825 220.375 134.0625 220.375 C134.0625 221.035 134.0625 221.695 134.0625 222.375 C134.7225 222.375 135.3825 222.375 136.0625 222.375 C136.0625 223.035 136.0625 223.695 136.0625 224.375 C136.64515625 224.6328125 137.2278125 224.890625 137.828125 225.15625 C140.2427903 226.47334017 141.87990177 227.92588384 143.8125 229.875 C144.42609375 230.4834375 145.0396875 231.091875 145.671875 231.71875 C147.0625 233.375 147.0625 233.375 147.0625 235.375 C147.7225 235.375 148.3825 235.375 149.0625 235.375 C149.0625 236.035 149.0625 236.695 149.0625 237.375 C149.64515625 237.6328125 150.2278125 237.890625 150.828125 238.15625 C153.2427903 239.47334017 154.87990177 240.92588384 156.8125 242.875 C157.42609375 243.4834375 158.0396875 244.091875 158.671875 244.71875 C160.0625 246.375 160.0625 246.375 160.0625 248.375 C160.7225 248.375 161.3825 248.375 162.0625 248.375 C162.0625 249.035 162.0625 249.695 162.0625 250.375 C162.64136963 250.62789795 163.22023926 250.8807959 163.81665039 251.14135742 C166.32865624 252.52119931 167.98728426 254.07256641 169.99609375 256.11328125 C170.72763672 256.85126953 171.45917969 257.58925781 172.21289062 258.34960938 C172.96763672 259.12111328 173.72238281 259.89261719 174.5 260.6875 C175.25087891 261.44740234 176.00175781 262.20730469 176.77539062 262.99023438 C178.23064219 264.46340461 179.68337594 265.93906727 181.13330078 267.41748047 C182.70441532 269.01165869 184.29648869 270.58515994 185.89453125 272.15234375 C190.99719352 277.38372183 194.81748076 282.71949775 195.16796875 290.18359375 C194.75823225 298.69700772 191.39423394 305.47317001 185.125 311.1875 C179.82080503 315.7957171 175.05012605 316.73713997 168.125 316.75 C167.43470703 316.77449219 166.74441406 316.79898437 166.03320312 316.82421875 C159.56641649 316.86099668 156.11555607 314.22902374 151.44277954 310.00924683 C150.56785858 309.13591705 149.69293762 308.26258728 148.79150391 307.36279297 C148.30294922 306.87774292 147.81439453 306.39269287 147.31103516 305.89294434 C145.71534703 304.30598113 144.1269946 302.71190854 142.5390625 301.1171875 C141.42691753 300.00639096 140.31447591 298.89589136 139.20175171 297.78567505 C136.88042376 295.46728507 134.56272589 293.14534237 132.24755859 290.82080078 C129.27498863 287.8367837 126.29345793 284.86190656 123.30919838 281.88958549 C121.01513456 279.60273079 118.72583332 277.31115641 116.43796921 275.01810074 C115.33977559 273.91857075 114.24008827 272.8205306 113.13890457 271.72399521 C111.60676503 270.19691104 110.08114321 268.6636052 108.55712891 267.12841797 C107.68698151 266.25667938 106.81683411 265.3849408 105.9203186 264.48678589 C104.0625 262.375 104.0625 262.375 104.0625 260.375 C103.44375 260.1275 102.825 259.88 102.1875 259.625 C99.71181313 258.16871361 99.11124998 256.99687494 98.0625 254.375 C97.4025 254.375 96.7425 254.375 96.0625 254.375 C96.0625 253.715 96.0625 253.055 96.0625 252.375 C95.4025 252.375 94.7425 252.375 94.0625 252.375 C94.0625 251.715 94.0625 251.055 94.0625 250.375 C93.0725 250.045 92.0825 249.715 91.0625 249.375 C89.4140625 247.703125 89.4140625 247.703125 87.6875 245.625 C85.58474374 243.13383654 83.486699 240.74731472 81.125 238.5 C79.0625 236.375 79.0625 236.375 79.0625 234.375 C75.05111046 232.55164112 71.47176328 231.62276297 67.0625 231.375 C64.49119119 232.45319653 62.40788166 233.50282673 60.0625 234.9375 C58.73891205 235.68931772 57.41198884 236.43528969 56.08203125 237.17578125 C55.41252441 237.54912598 54.74301758 237.9224707 54.05322266 238.30712891 C27.50875947 252.54621181 -5.37214215 253.56867517 -33.9375 245.375 C-44.09333728 242.11952734 -54.29809276 238.4842719 -63.1953125 232.50390625 C-65.05156649 231.19780682 -65.05156649 231.19780682 -67.9375 230.375 C-67.9375 229.715 -67.9375 229.055 -67.9375 228.375 C-70.9075 227.385 -70.9075 227.385 -73.9375 226.375 C-73.9375 225.715 -73.9375 225.055 -73.9375 224.375 C-74.68 224.106875 -75.4225 223.83875 -76.1875 223.5625 C-78.82811949 222.42223249 -80.79302844 221.28119694 -82.9375 219.375 C-82.9375 218.715 -82.9375 218.055 -82.9375 217.375 C-83.52015625 217.1171875 -84.1028125 216.859375 -84.703125 216.59375 C-87.1177903 215.27665983 -88.75490177 213.82411616 -90.6875 211.875 C-91.30109375 211.2665625 -91.9146875 210.658125 -92.546875 210.03125 C-93.9375 208.375 -93.9375 208.375 -93.9375 206.375 C-94.5975 206.375 -95.2575 206.375 -95.9375 206.375 C-95.9375 205.715 -95.9375 205.055 -95.9375 204.375 C-96.5975 204.375 -97.2575 204.375 -97.9375 204.375 C-113.24724263 184.99296892 -122.21080059 162.9507064 -124.9375 138.375 C-125.04707031 137.58351562 -125.15664062 136.79203125 -125.26953125 135.9765625 C-129.14458438 106.52615872 -119.7923737 74.8591536 -102.5625 51 C-95.57752513 42.18208846 -87.9209794 33.21025607 -78.9375 26.375 C-78.2775 26.375 -77.6175 26.375 -76.9375 26.375 C-76.9375 25.715 -76.9375 25.055 -76.9375 24.375 C-54.3439731 7.89410538 -27.79707953 -0.31186567 0 0 Z " fill="#D3E5F6" transform="translate(214.9375,81.625)"/>
<path d="M0 0 C1.77443481 0.01244751 1.77443481 0.01244751 3.5847168 0.02514648 C25.6037597 0.44856064 44.05105245 8.96805958 59.9375 24.25 C76.68702683 41.68750107 86.15483383 63.48098645 85.8984375 87.76171875 C85.02769145 109.32414059 76.59516187 127.25560195 62.75 143.4375 C62.05003906 144.35402344 62.05003906 144.35402344 61.3359375 145.2890625 C49.658999 160.24373812 28.96755054 169.15519557 10.75 172.4375 C-13.19504795 174.38005369 -36.36354894 169.09678934 -55.55078125 153.96875 C-57.90680617 151.88086145 -60.08995422 149.72512485 -62.25 147.4375 C-63.15298828 146.61765625 -63.15298828 146.61765625 -64.07421875 145.78125 C-78.70069232 132.37091019 -86.92561753 112.21420616 -88.5625 92.71484375 C-89.37739672 67.27478682 -80.48372402 45.18848542 -63.3125 26.625 C-62.631875 25.903125 -61.95125 25.18125 -61.25 24.4375 C-60.38375 23.509375 -59.5175 22.58125 -58.625 21.625 C-53.67429491 17.06514005 -46.15803704 10.4375 -39.25 10.4375 C-39.25 9.7775 -39.25 9.1175 -39.25 8.4375 C-37.16956581 7.65887596 -35.08544091 6.89011306 -33 6.125 C-31.83984375 5.69574219 -30.6796875 5.26648438 -29.484375 4.82421875 C-19.60562926 1.47658372 -10.44294645 -0.09503792 0 0 Z " fill="#B2DBF2" transform="translate(216.25,121.5625)"/>
<path d="M0 0 C0.74329559 0.00465271 1.48659119 0.00930542 2.25241089 0.01409912 C37.22844781 0.2705265 66.04918532 13.03772086 91.0625 37.375 C97.0625 43.6756012 97.0625 43.6756012 97.0625 46.375 C97.7225 46.375 98.3825 46.375 99.0625 46.375 C111.07803979 61.5704558 118.95070756 79.53460294 123.0625 98.375 C123.30742187 99.49519531 123.55234375 100.61539063 123.8046875 101.76953125 C128.09879104 126.09298073 125.12975292 151.86309624 115.0625 174.375 C114.4025 174.375 113.7425 174.375 113.0625 174.375 C112.7325 175.365 112.4025 176.355 112.0625 177.375 C111.0725 176.715 110.0825 176.055 109.0625 175.375 C109.454375 174.199375 109.84625 173.02375 110.25 171.8125 C110.52070313 170.99136719 110.79140625 170.17023438 111.0703125 169.32421875 C111.79379711 167.17370348 112.54201197 165.03146174 113.3046875 162.89453125 C122.00041909 138.06796028 121.15172995 111.29862331 113.28125 86.34765625 C112.03648028 82.39373976 111.03488784 78.404107 110.0625 74.375 C109.4025 74.375 108.7425 74.375 108.0625 74.375 C107.8665625 73.78074219 107.670625 73.18648438 107.46875 72.57421875 C104.80971575 65.2045678 100.85425665 59.52308255 96.0625 53.375 C95.40121094 52.49714844 94.73992187 51.61929688 94.05859375 50.71484375 C91.09298093 46.43664955 91.09298093 46.43664955 87.0625 43.375 C87.0625 42.385 87.0625 41.395 87.0625 40.375 C86.485 40.106875 85.9075 39.83875 85.3125 39.5625 C83.00699957 38.34570811 81.04193808 37.07166121 79.0625 35.375 C79.0625 34.715 79.0625 34.055 79.0625 33.375 C78.4025 33.16875 77.7425 32.9625 77.0625 32.75 C72.69200729 30.74685751 67.27326053 27.79652106 65.0625 23.375 C62.78524518 22.03200357 60.42024861 20.9374255 58.03515625 19.796875 C56.08730597 18.86518315 54.15623946 17.89735922 52.24609375 16.890625 C24.05393429 2.62914147 -10.2942235 3.6897088 -39.9375 12.375 C-43.33875578 13.57544322 -46.63755173 14.92326675 -49.9375 16.375 C-52.90921787 17.66079623 -54.67079899 18.375 -57.9375 18.375 C-57.9375 19.035 -57.9375 19.695 -57.9375 20.375 C-64.6875 24.375 -64.6875 24.375 -66.9375 24.375 C-66.9375 25.035 -66.9375 25.695 -66.9375 26.375 C-68.89347184 27.77212274 -70.9034094 29.09427629 -72.9375 30.375 C-77.09853979 32.75929735 -77.09853979 32.75929735 -79.9375 36.375 C-80.5975 36.375 -81.2575 36.375 -81.9375 36.375 C-81.9375 37.035 -81.9375 37.695 -81.9375 38.375 C-83.44140625 39.78515625 -83.44140625 39.78515625 -85.5 41.4375 C-89.47739149 44.78613866 -92.46780489 48.43930844 -95.4921875 52.65234375 C-95.96914062 53.22082031 -96.44609375 53.78929687 -96.9375 54.375 C-97.5975 54.375 -98.2575 54.375 -98.9375 54.375 C-99.14375 55.15875 -99.35 55.9425 -99.5625 56.75 C-101.11591382 60.84536371 -103.24028053 64.24924564 -105.5390625 67.9609375 C-107.11012021 70.67298684 -108.14024243 73.34542123 -108.9375 76.375 C-109.5975 76.375 -110.2575 76.375 -110.9375 76.375 C-111.10765625 77.09042969 -111.2778125 77.80585938 -111.453125 78.54296875 C-112.77286766 83.96935745 -114.21568897 89.26971224 -116 94.5625 C-122.54727553 115.86632731 -121.94037738 142.57387029 -113.9375 163.375 C-113.23367187 165.21384766 -113.23367187 165.21384766 -112.515625 167.08984375 C-111.99125274 168.43554753 -111.4652002 169.78059774 -110.9375 171.125 C-110.68838867 171.76348877 -110.43927734 172.40197754 -110.18261719 173.05981445 C-108.7160877 176.72469663 -107.03989571 180.03919881 -104.9375 183.375 C-104.35162109 184.45587891 -104.35162109 184.45587891 -103.75390625 185.55859375 C-96.58241574 198.44940379 -84.11038235 213.85393027 -71.25 221.3125 C-70.156875 221.993125 -69.06375 222.67375 -67.9375 223.375 C-67.9375 224.695 -67.9375 226.015 -67.9375 227.375 C-69.9175 227.045 -71.8975 226.715 -73.9375 226.375 C-73.9375 225.715 -73.9375 225.055 -73.9375 224.375 C-74.68 224.106875 -75.4225 223.83875 -76.1875 223.5625 C-78.82811949 222.42223249 -80.79302844 221.28119694 -82.9375 219.375 C-82.9375 218.715 -82.9375 218.055 -82.9375 217.375 C-83.52015625 217.1171875 -84.1028125 216.859375 -84.703125 216.59375 C-87.1177903 215.27665983 -88.75490177 213.82411616 -90.6875 211.875 C-91.30109375 211.2665625 -91.9146875 210.658125 -92.546875 210.03125 C-93.9375 208.375 -93.9375 208.375 -93.9375 206.375 C-94.5975 206.375 -95.2575 206.375 -95.9375 206.375 C-95.9375 205.715 -95.9375 205.055 -95.9375 204.375 C-96.5975 204.375 -97.2575 204.375 -97.9375 204.375 C-113.24724263 184.99296892 -122.21080059 162.9507064 -124.9375 138.375 C-125.04707031 137.58351562 -125.15664062 136.79203125 -125.26953125 135.9765625 C-129.14458438 106.52615872 -119.7923737 74.8591536 -102.5625 51 C-95.57752513 42.18208846 -87.9209794 33.21025607 -78.9375 26.375 C-78.2775 26.375 -77.6175 26.375 -76.9375 26.375 C-76.9375 25.715 -76.9375 25.055 -76.9375 24.375 C-54.3439731 7.89410538 -27.79707953 -0.31186567 0 0 Z " fill="#F0F6FB" transform="translate(214.9375,81.625)"/>
<path d="M0 0 C7.37297297 2.34594595 7.37297297 2.34594595 10 4 C10.33 4.99 10.66 5.98 11 7 C11.86625 7.391875 12.7325 7.78375 13.625 8.1875 C18.19045722 10.63931962 20.74322823 14.04330798 24 18 C25.14324654 19.27316092 26.28907292 20.54401009 27.4375 21.8125 C34.05974069 29.46387269 39.38456962 36.39683248 42.11328125 46.2734375 C42.89429916 49.04458267 42.89429916 49.04458267 44.5 51.4140625 C52.78382018 65.69502333 50.67685689 90.51430751 46.65136719 105.94287109 C43.78004415 115.01099999 38.82117687 123.52660791 33 131 C32.34 131 31.68 131 31 131 C30.9175 131.556875 30.835 132.11375 30.75 132.6875 C29.76141235 135.73564526 28.07497539 137.56931455 26 140 C25.29875 140.928125 24.5975 141.85625 23.875 142.8125 C23.25625 143.534375 22.6375 144.25625 22 145 C21.34 145 20.68 145 20 145 C19.75636719 145.59296875 19.51273438 146.1859375 19.26171875 146.796875 C13.56782787 156.73914885 -5.55353749 164.0776957 -16.12109375 167.2578125 C-39.39210529 173.25712348 -64.05536061 169.90969691 -85 158 C-85.33 157.34 -85.66 156.68 -86 156 C-87.38243363 155.38558505 -88.78193383 154.80947495 -90.1875 154.25 C-95.60382342 151.66368591 -99.44460829 148.02324228 -103.625 143.8125 C-104.25301514 143.18182617 -104.88103027 142.55115234 -105.52807617 141.90136719 C-110 137.28126787 -110 137.28126787 -110 135 C-110.66 135 -111.32 135 -112 135 C-112 134.34 -112 133.68 -112 133 C-112.66 133 -113.32 133 -114 133 C-114 132.34 -114 131.68 -114 131 C-114.66 131 -115.32 131 -116 131 C-116.48919922 129.91332031 -116.48919922 129.91332031 -116.98828125 128.8046875 C-117.64376953 127.35449219 -117.64376953 127.35449219 -118.3125 125.875 C-118.74175781 124.92367187 -119.17101562 123.97234375 -119.61328125 122.9921875 C-120.53245814 121.0088368 -121.50658943 119.0499837 -122.53515625 117.12109375 C-124.20331422 113.56680517 -125.19904133 109.98393055 -126.125 106.1875 C-126.90037191 101.7382907 -126.90037191 101.7382907 -129 98 C-131.40357306 75.1053596 -131.40357306 75.1053596 -126 67 C-126.02094727 67.6077124 -126.04189453 68.2154248 -126.06347656 68.84155273 C-126.82508645 94.43019892 -122.28953124 116.42214845 -105 136 C-104.1440625 136.9796875 -103.288125 137.959375 -102.40625 138.96875 C-95.70459307 146.14346506 -88.66038358 150.641068 -80 155 C-78.9378125 155.55558594 -77.875625 156.11117187 -76.78125 156.68359375 C-57.85584769 166.07602732 -36.18252624 168.32239103 -15.79296875 162.40625 C9.0156189 153.71381016 27.47563632 136.50280466 39.04541016 113.12646484 C42.94999794 104.42852122 45.75429565 94.54970918 46 85 C46.05027344 83.97003906 46.10054687 82.94007813 46.15234375 81.87890625 C46.66334613 63.544141 41.38784705 44.60554339 30 30 C29.38253906 29.18273437 28.76507813 28.36546875 28.12890625 27.5234375 C19.68969924 16.63307679 10.54070361 9.33315542 -1 2 C-0.67 1.34 -0.34 0.68 0 0 Z " fill="#E0F2FD" transform="translate(255,128)"/>
<path d="M0 0 C0.33 0 0.66 0 1 0 C1.33 7.92 1.66 15.84 2 24 C2.99 20.535 2.99 20.535 4 17 C4.33 17 4.66 17 5 17 C5.07347656 18.41539062 5.07347656 18.41539062 5.1484375 19.859375 C5.81277568 31.26766506 6.86531022 42.25308808 11 53 C11.70382813 54.83884766 11.70382813 54.83884766 12.421875 56.71484375 C12.94624726 58.06054753 13.4722998 59.40559774 14 60.75 C14.24911133 61.38848877 14.49822266 62.02697754 14.75488281 62.68481445 C16.2214123 66.34969663 17.89760429 69.66419881 20 73 C20.39058594 73.72058594 20.78117187 74.44117188 21.18359375 75.18359375 C28.35508426 88.07440379 40.82711765 103.47893027 53.6875 110.9375 C54.780625 111.618125 55.87375 112.29875 57 113 C57 114.32 57 115.64 57 117 C54.03 116.505 54.03 116.505 51 116 C51 115.34 51 114.68 51 114 C50.2575 113.731875 49.515 113.46375 48.75 113.1875 C46.10938051 112.04723249 44.14447156 110.90619694 42 109 C42 108.34 42 107.68 42 107 C41.41734375 106.7421875 40.8346875 106.484375 40.234375 106.21875 C37.8197097 104.90165983 36.18259823 103.44911616 34.25 101.5 C33.63640625 100.8915625 33.0228125 100.283125 32.390625 99.65625 C31 98 31 98 31 96 C30.34 96 29.68 96 29 96 C29 95.34 29 94.68 29 94 C28.34 94 27.68 94 27 94 C11.69025737 74.61796892 2.72669941 52.5757064 0 28 C-0.10957031 27.20851562 -0.21914062 26.41703125 -0.33203125 25.6015625 C-1.46075927 17.02322953 -1.28976486 8.54469218 0 0 Z " fill="#E8F1F9" transform="translate(90,192)"/>
<path d="M0 0 C61.10865847 -0.21446412 61.10865847 -0.21446412 87 1 C86.67 1.66 86.34 2.32 86 3 C74.71672962 5.92243288 62.67389327 5.23451715 51.125 5.125 C49.2617236 5.11494227 47.3984419 5.10582139 45.53515625 5.09765625 C41.02330371 5.07588214 36.51171236 5.04150903 32 5 C32 4.34 32 3.68 32 3 C25.35958878 1.77600548 18.79778303 1.88772247 12.0625 1.9375 C10.90169922 1.94201172 9.74089844 1.94652344 8.54492188 1.95117188 C5.69656066 1.96289353 2.84830778 1.9793024 0 2 C0 1.34 0 0.68 0 0 Z " fill="#CCEAFB" transform="translate(168,235)"/>
<path d="M0 0 C0.763125 0.639375 1.52625 1.27875 2.3125 1.9375 C4.88246713 4.14232781 4.88246713 4.14232781 8 5 C8 5.66 8 6.32 8 7 C8.598125 7.268125 9.19625 7.53625 9.8125 7.8125 C13.3581777 9.73729647 14.6800635 11.23215239 16.25 15 C17 18 17 18 16 21 C15.34 21 14.68 21 14 21 C14 20.34 14 19.68 14 19 C13.443125 18.773125 12.88625 18.54625 12.3125 18.3125 C9.33840412 16.62449964 7.27991135 14.53323483 5 12 C5 11.34 5 10.68 5 10 C4.01 9.67 3.02 9.34 2 9 C-2 3.62857143 -2 3.62857143 -2 1 C-1.34 0.67 -0.68 0.34 0 0 Z " fill="#E9F0FA" transform="translate(328,284)"/>
<path d="M0 0 C1.32451172 0.77923828 1.32451172 0.77923828 2.67578125 1.57421875 C11.53147624 6.73766526 20.45566112 11.22309584 30 15 C30 15.99 30 16.98 30 18 C29.34 18 28.68 18 28 18 C28 17.34 28 16.68 28 16 C26.7625 16.34417969 26.7625 16.34417969 25.5 16.6953125 C20.90981696 17.09490433 18.10119682 15.78683611 14 13.875 C12.97132813 13.43027344 12.97132813 13.43027344 11.921875 12.9765625 C7.30439772 10.89693533 3.54719564 8.64696052 0 5 C-0.375 2.1875 -0.375 2.1875 0 0 Z " fill="#DFEDFA" transform="translate(148,306)"/>
<path d="M0 0 C0.33 0 0.66 0 1 0 C1.76421244 18.80811737 -3.54389436 36.44279205 -14 52 C-14.99 52.495 -14.99 52.495 -16 53 C-16 51.68 -16 50.36 -16 49 C-15.34 49 -14.68 49 -14 49 C-14 47.68 -14 46.36 -14 45 C-13.01 44.505 -13.01 44.505 -12 44 C-11.67 43.01 -11.34 42.02 -11 41 C-10.34 41 -9.68 41 -9 41 C-9.350625 40.2575 -9.70125 39.515 -10.0625 38.75 C-11.04509293 35.8677274 -11.0326802 34.78823655 -10 32 C-8.35 32 -6.7 32 -5 32 C-4.46928969 27.87620737 -3.95210526 23.75083081 -3.4375 19.625 C-3.28603516 18.449375 -3.13457031 17.27375 -2.97851562 16.0625 C-2.83994141 14.94101563 -2.70136719 13.81953125 -2.55859375 12.6640625 C-2.42767334 11.62717285 -2.29675293 10.5902832 -2.16186523 9.52197266 C-1.78776638 7.00481426 -1.78776638 7.00481426 -3 5 C-2.34 4.67 -1.68 4.34 -1 4 C-0.34786708 1.97536745 -0.34786708 1.97536745 0 0 Z " fill="#A8CCEA" transform="translate(301,203)"/>
<path d="M0 0 C1.98 0 3.96 0 6 0 C-8.61152712 12.46744434 -28.7306572 13.19053774 -47 12 C-48.67219231 11.69559606 -50.34113338 11.37020324 -52 11 C-52 10.67 -52 10.34 -52 10 C-47.545 9.505 -47.545 9.505 -43 9 C-43 9.66 -43 10.32 -43 11 C-36.565 10.505 -36.565 10.505 -30 10 C-30 9.34 -30 8.68 -30 8 C-28.35 8 -26.7 8 -25 8 C-25 8.66 -25 9.32 -25 10 C-24.195625 9.690625 -23.39125 9.38125 -22.5625 9.0625 C-18.37750913 7.81434483 -14.33693899 7.3662304 -10 7 C-10 6.34 -10 5.68 -10 5 C-9.36191406 4.89042969 -8.72382813 4.78085937 -8.06640625 4.66796875 C-7.24011719 4.50941406 -6.41382813 4.35085938 -5.5625 4.1875 C-4.73878906 4.03667969 -3.91507813 3.88585937 -3.06640625 3.73046875 C-2.38449219 3.48941406 -1.70257813 3.24835938 -1 3 C-0.67 2.01 -0.34 1.02 0 0 Z " fill="#A6C9E9" transform="translate(251,282)"/>
<path d="M0 0 C0.66 0.66 1.32 1.32 2 2 C2.33 1.34 2.66 0.68 3 0 C4.65 0.33 6.3 0.66 8 1 C7.01 1.495 7.01 1.495 6 2 C7.06645115 3.29633621 7.06645115 3.29633621 9.5625 3.0625 C10.366875 3.041875 11.17125 3.02125 12 3 C9.53908406 5.46091594 7.481204 6.02845243 4.1875 7.125 C3.14980469 7.47820312 2.11210937 7.83140625 1.04296875 8.1953125 C-1.80485601 8.94839581 -4.07575626 9.16215769 -7 9 C-6.01 8.67 -5.02 8.34 -4 8 C-4.75150023 4.72226496 -4.75150023 4.72226496 -8 3 C-5.10765685 2.17361624 -3.11257569 2 0 2 C0 1.34 0 0.68 0 0 Z " fill="#D2DDF2" transform="translate(247,320)"/>
<path d="M0 0 C0.66 0.33 1.32 0.66 2 1 C-3.75 6 -3.75 6 -6 6 C-6.185625 7.0725 -6.37125 8.145 -6.5625 9.25 C-7.21673739 11.60620278 -7.6257409 12.71331384 -9.5859375 14.21484375 C-11.38260239 15.15866138 -13.19116744 16.07971677 -15 17 C-16.04115841 18.30144802 -17.03886134 19.63838689 -18 21 C-20.26839559 23.07893591 -22.62323636 25.04649564 -25 27 C-22.23733166 18.46084331 -14.79557741 12.43646193 -8 7 C-6.700625 5.700625 -6.700625 5.700625 -5.375 4.375 C-3 2 -3 2 0 0 Z " fill="#BEE0EF" transform="translate(167,136)"/>
<path d="M0 0 C0.66 0 1.32 0 2 0 C2.423659 6.24897028 2.06176545 8.14844682 -2 13 C-3.036645 15.83322101 -3.9346148 18.67758297 -4.77734375 21.57421875 C-6 24 -6 24 -8.62890625 25.33203125 C-9.41136719 25.55246094 -10.19382812 25.77289063 -11 26 C-9.03996839 20.74588386 -6.42161196 15.84739357 -3.83398438 10.8828125 C-1.9877058 7.26533507 -0.51854373 4.08452907 0 0 Z " fill="#C3D8F2" transform="translate(301,231)"/>
<path d="M0 0 C0.66 0.33 1.32 0.66 2 1 C1.34 1.66 0.68 2.32 0 3 C0 2.01 0 1.02 0 0 Z M-3 2 C-2.34 2.33 -1.68 2.66 -1 3 C-2.52241901 6.04483802 -4.95036084 6.55835239 -8 8 C-9.35516787 8.68552437 -10.70930553 9.37308842 -12.0625 10.0625 C-17.04085923 12.53750971 -21.4495047 14.22551228 -27 15 C-27 14.34 -27 13.68 -27 13 C-26.02160156 12.62488281 -25.04320312 12.24976563 -24.03515625 11.86328125 C-17.284434 9.23862249 -10.81045159 6.63050985 -4.63671875 2.78515625 C-4.09660156 2.52605469 -3.55648438 2.26695312 -3 2 Z " fill="#BFD5F2" transform="translate(264,282)"/>
<path d="M0 0 C0.66 0 1.32 0 2 0 C0.44903299 4.18378137 -2.35432004 6.08357411 -5.875 8.6875 C-6.92429687 9.47511719 -7.97359375 10.26273437 -9.0546875 11.07421875 C-11.54186354 12.70044924 -13.11085448 13.58826187 -16 14 C-15.75 12.125 -15.75 12.125 -15 10 C-13.0625 8.875 -13.0625 8.875 -11 8 C-10.34 7.34 -9.68 6.68 -9 6 C-8.34 6.33 -7.68 6.66 -7 7 C-7 6.34 -7 5.68 -7 5 C-5.03277992 3.61876037 -3.03131672 2.28511874 -1 1 C-0.67 0.67 -0.34 0.34 0 0 Z " fill="#A2C6EB" transform="translate(273,268)"/>
<path d="M0 0 C1.32 0.33 2.64 0.66 4 1 C3.72285156 1.49628906 3.44570313 1.99257813 3.16015625 2.50390625 C0.72396295 7.07285241 -0.36430268 10.8084719 -1 16 C-1.66 16.33 -2.32 16.66 -3 17 C-4.72805471 10.37579029 -2.84964058 6.07841789 0 0 Z " fill="#E1ECFC" transform="translate(322,260)"/>
<path d="M0 0 C-0.47050781 0.845625 -0.94101563 1.69125 -1.42578125 2.5625 C-4.73276103 8.58763914 -7.82003065 14.46009194 -10 21 C-11.41687119 16.74938644 -10.19320039 14.28148375 -9 10 C-8.34 10 -7.68 10 -7 10 C-6.97421875 9.37351563 -6.9484375 8.74703125 -6.921875 8.1015625 C-6.86515625 7.28429687 -6.8084375 6.46703125 -6.75 5.625 C-6.70359375 4.81289062 -6.6571875 4.00078125 -6.609375 3.1640625 C-6 1 -6 1 -4.078125 -0.3515625 C-2 -1 -2 -1 0 0 Z " fill="#DDF6FC" transform="translate(143,161)"/>
<path d="M0 0 C0.99 0.66 1.98 1.32 3 2 C3 2.66 3 3.32 3 4 C1.02 4.99 1.02 4.99 -1 6 C-0.34 6.66 0.32 7.32 1 8 C-1.64 8.33 -4.28 8.66 -7 9 C-6.01 8.67 -5.02 8.34 -4 8 C-4.75150023 4.72226496 -4.75150023 4.72226496 -8 3 C-5.10765685 2.17361624 -3.11257569 2 0 2 C0 1.34 0 0.68 0 0 Z " fill="#C8D5F3" transform="translate(247,320)"/>
<path d="M0 0 C0.556875 0.598125 1.11375 1.19625 1.6875 1.8125 C3.99469969 3.99498619 6.27624574 5.39368339 9 7 C10.8125 8.6875 10.8125 8.6875 12 10 C11.67 10.66 11.34 11.32 11 12 C10.278125 11.319375 9.55625 10.63875 8.8125 9.9375 C6.1794348 7.68262931 6.1794348 7.68262931 3.1875 8.25 C2.465625 8.4975 1.74375 8.745 1 9 C0.855625 8.21625 0.71125 7.4325 0.5625 6.625 C0.12201075 4.03578982 0.12201075 4.03578982 -1 2 C-0.67 1.34 -0.34 0.68 0 0 Z " fill="#DFEAF7" transform="translate(322,277)"/>
<path d="M0 0 C3 1 3 1 3 1 Z M0 2 C-1.2065625 2.6496875 -1.2065625 2.6496875 -2.4375 3.3125 C-5.27846354 4.80474002 -5.27846354 4.80474002 -6 8 C-8.31 7.67 -10.62 7.34 -13 7 C-12.01 6.67 -11.02 6.34 -10 6 C-10 5.34 -10 4.68 -10 4 C-3.375 0.875 -3.375 0.875 0 2 Z M-15 7 C-13 8 -13 8 -13 8 Z " fill="#BDDFED" transform="translate(187,126)"/>
<path d="M0 0 C0.33 0.99 0.66 1.98 1 3 C-0.81325551 2.88648483 -2.62563357 2.75887039 -4.4375 2.625 C-5.95150391 2.52058594 -5.95150391 2.52058594 -7.49609375 2.4140625 C-8.32238281 2.27742188 -9.14867187 2.14078125 -10 2 C-10.33 1.34 -10.66 0.68 -11 0 C-7.0888992 -2.81599257 -4.26709995 -1.69073772 0 0 Z " fill="#E3F0FD" transform="translate(194,325)"/>
<path d="M0 0 C-0.33 0.66 -0.66 1.32 -1 2 C-6.94 2 -12.88 2 -19 2 C-19 1.67 -19 1.34 -19 1 C-16.77253461 0.63528645 -14.54292708 0.28364028 -12.3125 -0.0625 C-10.45044922 -0.35833984 -10.45044922 -0.35833984 -8.55078125 -0.66015625 C-5.33929143 -0.96752656 -3.08216081 -0.84273231 0 0 Z " fill="#C5DFF5" transform="translate(259,238)"/>
<path d="M0 0 C3 3 3 3 3.07421875 5.26171875 C2.94660156 6.06222656 2.81898438 6.86273438 2.6875 7.6875 C2.50767578 8.89986328 2.50767578 8.89986328 2.32421875 10.13671875 C2.21722656 10.75160156 2.11023438 11.36648438 2 12 C1.01 12.33 0.02 12.66 -1 13 C-0.67 8.71 -0.34 4.42 0 0 Z " fill="#EAEEF6" transform="translate(407,368)"/>
<path d="M0 0 C0.66 0 1.32 0 2 0 C2 0.66 2 1.32 2 2 C2.87398438 2.38285156 2.87398438 2.38285156 3.765625 2.7734375 C6.21388223 4.11741087 7.81743248 5.61810296 9.75 7.625 C10.36359375 8.25664062 10.9771875 8.88828125 11.609375 9.5390625 C12.29773438 10.26222656 12.29773438 10.26222656 13 11 C12.67 11.66 12.34 12.32 12 13 C10.49410612 11.71520959 8.99542625 10.42195918 7.5 9.125 C6.6646875 8.40570313 5.829375 7.68640625 4.96875 6.9453125 C4.3190625 6.30335938 3.669375 5.66140625 3 5 C3 4.34 3 3.68 3 3 C2.34 3 1.68 3 1 3 C0.67 2.01 0.34 1.02 0 0 Z " fill="#E3EAF3" transform="translate(362,317)"/>
<path d="M0 0 C0.66 0 1.32 0 2 0 C0.63629701 2.99220268 -0.94908083 5.29026529 -3.125 7.75 C-3.93324219 8.67039062 -3.93324219 8.67039062 -4.7578125 9.609375 C-5.16773438 10.06828125 -5.57765625 10.5271875 -6 11 C-6.66 10.67 -7.32 10.34 -8 10 C-6.85500893 8.52018126 -5.708983 7.04116318 -4.5625 5.5625 C-3.60537109 4.32693359 -3.60537109 4.32693359 -2.62890625 3.06640625 C-1 1 -1 1 0 0 Z " fill="#C3D4F3" transform="translate(285,262)"/>
<path d="M0 0 C0.66 0.99 1.32 1.98 2 3 C0.515 5.475 0.515 5.475 -1 8 C-1.93065133 5.39417629 -2.14917407 4.35801776 -1.0625 1.75 C-0.711875 1.1725 -0.36125 0.595 0 0 Z M-3 8 C-2.67 8 -2.34 8 -2 8 C-2 9.65 -2 11.3 -2 13 C-2.99 13.33 -3.98 13.66 -5 14 C-4.34 12.02 -3.68 10.04 -3 8 Z " fill="#BEE0EE" transform="translate(137,170)"/>
<path d="M0 0 C0.99 0 1.98 0 3 0 C1.63629701 2.99220268 0.05091917 5.29026529 -2.125 7.75 C-2.93324219 8.67039062 -2.93324219 8.67039062 -3.7578125 9.609375 C-4.16773438 10.06828125 -4.57765625 10.5271875 -5 11 C-5 7.66103832 -4.40577375 6.59519111 -2.6875 3.8125 C-2.25824219 3.09707031 -1.82898438 2.38164062 -1.38671875 1.64453125 C-0.92910156 1.10183594 -0.47148437 0.55914062 0 0 Z " fill="#A1C6E6" transform="translate(282,256)"/>
<path d="M0 0 C2 1 4 2 6 3 C5.67 4.32 5.34 5.64 5 7 C3.68 6.67 2.36 6.34 1 6 C0.67 4.02 0.34 2.04 0 0 Z " fill="#E1EBFC" transform="translate(295,313)"/>
<path d="M0 0 C2.475 0.99 2.475 0.99 5 2 C4.67 3.98 4.34 5.96 4 8 C3.34 8 2.68 8 2 8 C0.375 6 0.375 6 -1 4 C-0.67 3.34 -0.34 2.68 0 2 C0 1.34 0 0.68 0 0 Z " fill="#E8F0FD" transform="translate(324,342)"/>
<path d="M0 0 C2 1 2 1 2 1 Z M-1 1 C-0.67 1.66 -0.34 2.32 0 3 C-0.66 2.67 -1.32 2.34 -2 2 C-1.67 1.67 -1.34 1.34 -1 1 Z M-2 3 C-3.38081223 7.1424367 -5.59825558 8.32203099 -9 11 C-9 9.68 -9 8.36 -9 7 C-4.77777778 3 -4.77777778 3 -2 3 Z " fill="#BBD4F3" transform="translate(275,274)"/>
<path d="M0 0 C0.33 0.99 0.66 1.98 1 3 C-0.4375 5.6875 -0.4375 5.6875 -2 8 C-3.74627478 5.38058783 -4.38722388 3.96175123 -5 1 C-3.68 1.33 -2.36 1.66 -1 2 C-0.67 1.34 -0.34 0.68 0 0 Z " fill="#D2DFEC" transform="translate(328,256)"/>
<path d="M0 0 C0 0.66 0 1.32 0 2 C-2.97 2 -5.94 2 -9 2 C-9 1.34 -9 0.68 -9 0 C-5.93109813 -1.53445094 -3.29905734 -0.54984289 0 0 Z " fill="#BFD2EE" transform="translate(291,306)"/>
<path d="M0 0 C0.66 0.33 1.32 0.66 2 1 C1.67 1.99 1.34 2.98 1 4 C-0.98 4.33 -2.96 4.66 -5 5 C-5 4.34 -5 3.68 -5 3 C-4.34 3 -3.68 3 -3 3 C-3 2.34 -3 1.68 -3 1 C-2.01 0.67 -1.02 0.34 0 0 Z " fill="#DDEAFC" transform="translate(258,319)"/>
</svg>
